<svg width="28" height="29" viewBox="0 0 28 29" fill="none" xmlns="http://www.w3.org/2000/svg">
<path d="M0 28.4V9.5C3.7 5.8 5.79999 3.7 9.59999 0H27.3C27.4 0 27.3 4.29999 27.3 4.29999C26.7 4.89999 24.5 7.09999 24.5 7.09999V21.3C25.6 22.4 26.2 23 27.3 24.1C27.3 24.1 27.4 28.4 27.3 28.4C27.1 28.4 0 28.6 0 28.4Z" fill="#1D1D1D"/>
<path d="M4.70007 14.8C4.70007 12.8 5.50008 10.9 7.00008 9.29999C7.30008 8.99999 7.60007 9 7.90007 9.2C8.20007 9.5 8.20008 9.9 8.00008 10.2C7.70008 10.6 7.30008 11 7.00008 11.4C5.40008 13.9 5.80006 17.3 7.80006 19.5C7.90006 19.6 7.90008 19.6 8.00008 19.7C8.30008 20 8.30008 20.4 8.00008 20.7C7.70008 21 7.30007 21 7.10007 20.7C6.70007 20.3 6.40007 19.9 6.10007 19.4C5.20007 18.1 4.70007 16.7 4.70007 14.8Z" fill="#FF9D00"/>
<path d="M20.8 15.2C20.8 17.2 20 19.1 18.5 20.7C18.2 21 17.9 21 17.6 20.9C17.2 20.7 17.2 20.2 17.5 19.8C17.9 19.3 18.3 18.8 18.6 18.3C20 15.8 19.6 12.6 17.6 10.5L17.5 10.4C17.2 10.1 17.2 9.69999 17.5 9.39999C17.8 9.09999 18.2 9.09999 18.5 9.39999C18.9 9.79999 19.2 10.2 19.5 10.6C20.4 12 20.8 13.4 20.8 15.2Z" fill="#FF9D00"/>
<path d="M15.0001 15C15.0001 16.2 14.0001 17.2 12.8001 17.2C11.6001 17.2 10.6001 16.2 10.6001 15C10.6001 13.8 11.6001 12.8 12.8001 12.8C14.0001 12.8 15.0001 13.8 15.0001 15Z" fill="#FF9D00"/>
<path d="M7.40002 15.1C7.40002 13.6 7.90002 12.4 8.90002 11.3C9.20002 11 9.60002 11 9.90002 11.2C10.2 11.5 10.2 11.9 9.90002 12.2C8.50002 13.7 8.40002 16 9.60002 17.5C9.70002 17.6 9.80002 17.7 9.90002 17.9C10.2 18.2 10.1 18.6 9.90002 18.8C9.60002 19.1 9.20003 19 9.00003 18.8C7.90003 17.8 7.40002 16.5 7.40002 15.1Z" fill="#FF9D00"/>
<path d="M18.2001 15C18.2001 16.5 17.7001 17.7 16.7001 18.8C16.4001 19.1 16.0001 19.1 15.7001 18.9C15.4001 18.6 15.4001 18.2 15.7001 17.9C17.2001 16.2 17.3001 13.9 15.7001 12.2C15.4001 11.9 15.4001 11.5 15.7001 11.2C16.0001 10.9 16.4001 11 16.7001 11.3C17.6001 12.3 18.1001 13.6 18.2001 15Z" fill="#FF9D00"/>
</svg>
