<svg width="16" height="16" viewBox="0 0 16 16" fill="none" xmlns="http://www.w3.org/2000/svg">
<path d="M7.77499 12.975C8.07499 12.675 8.375 12.375 8.675 12.075C8.975 11.775 9.275 11.675 9.675 11.775C10.575 11.975 10.875 12.975 10.275 13.575L10.175 13.675C9.675 14.175 9.07499 14.775 8.57499 15.275C8.07499 15.775 7.475 15.775 6.975 15.275C6.375 14.675 5.87499 14.175 5.27499 13.575C4.97499 13.275 4.875 12.875 4.975 12.475C5.075 12.075 5.375 11.775 5.875 11.675C6.275 11.575 6.575 11.775 6.875 11.975C7.175 12.375 7.47499 12.675 7.77499 12.975Z" fill="#FF7517"/>
<path d="M7.77505 2.67499C7.47505 2.97499 7.17506 3.375 6.87505 3.575C6.37505 4.075 5.67505 3.97499 5.27505 3.47499C4.97505 3.07499 4.97505 2.57499 5.27505 2.17499C5.37505 2.07499 5.37506 1.97499 5.47506 1.97499C5.97506 1.47499 6.47505 0.975 7.07505 0.375C7.57505 -0.125 8.27505 -0.125 8.77505 0.375C9.27505 0.875 9.87505 1.47499 10.3751 1.97499C10.8751 2.47499 10.8751 3.075 10.3751 3.575C9.97505 3.975 9.37505 4.07499 8.87505 3.67499C8.57505 3.47499 8.37505 3.175 8.07505 2.875C7.87505 2.875 7.87505 2.77499 7.77505 2.67499Z" fill="#FF7517"/>
<path d="M12.875 7.875C12.575 7.575 12.275 7.27499 11.975 6.97499C11.675 6.67499 11.475 6.275 11.675 5.875C11.875 5.075 12.875 4.775 13.475 5.375C14.075 5.975 14.675 6.57499 15.275 7.17499C15.675 7.57499 15.675 8.175 15.275 8.575C14.675 9.175 14.075 9.775 13.475 10.375C12.975 10.775 12.375 10.775 11.975 10.375C11.575 9.975 11.475 9.275 11.975 8.875C12.175 8.475 12.575 8.175 12.875 7.875Z" fill="#FF7517"/>
<path d="M2.575 7.87499C2.875 8.17499 3.275 8.47499 3.575 8.77499C3.975 9.17499 3.97499 9.67499 3.77499 10.075C3.37499 10.675 2.675 10.875 2.075 10.375L1.97501 10.275C1.47501 9.77499 0.875 9.17498 0.375 8.67498C-0.125 8.17498 -0.125 7.57499 0.375 7.07499C0.975 6.47499 1.475 5.97499 2.075 5.37499C2.375 5.07499 2.77499 4.97499 3.27499 5.07499C3.67499 5.27499 3.97501 5.57499 3.97501 6.07499C3.97501 6.47499 3.875 6.67498 3.575 6.97498C3.375 7.27498 3.075 7.47498 2.875 7.67498C2.775 7.77498 2.675 7.77499 2.575 7.87499Z" fill="#FF7517"/>
<path d="M7.77504 8.97499C7.17504 8.97499 6.67505 8.475 6.67505 7.875C6.67505 7.275 7.17504 6.77499 7.77504 6.77499C8.37504 6.77499 8.87505 7.275 8.87505 7.875C8.87505 8.475 8.37504 8.97499 7.77504 8.97499Z" fill="#FF7517"/>
</svg>
