<svg width="28" height="29" viewBox="0 0 28 29" fill="none" xmlns="http://www.w3.org/2000/svg">
<path d="M0 28.4V9.5C3.7 5.8 5.79999 3.7 9.59999 0H27.3C27.4 0 27.3 4.30002 27.3 4.30002C26.7 4.90002 24.5 7.10001 24.5 7.10001V21.3C25.6 22.4 26.2 23 27.3 24.1C27.3 24.1 27.4 28.4 27.3 28.4C27.1 28.4 0 28.7 0 28.4Z" fill="#1D1D1D"/>
<path d="M12.7 13.5C12.8 13.3 12.9 13.2 13 13.1C13.6 12.4 14.4 12 15.4 12C15.9 12 16.3 12.4 16.4 12.8C16.5 13.3 16.2 13.8 15.7 13.9C15.6 13.9 15.5 13.9 15.4 13.9C15.1 13.9 14.8 14.1 14.6 14.3C14.3 14.7 14 15 13.7 15.4C13.6 15.5 13.6 15.6 13.7 15.7C13.8 16 14 16.4 14.1 16.7C14.1 16.8 14.2 16.9 14.4 16.9C14.5 16.9 14.7 16.9 14.8 16.9C15.2 17 15.6 17.5 15.5 17.9C15.4 18.4 15.1 18.8 14.6 18.8C13.8 18.9 13 18.6 12.5 17.9C12.4 17.7 12.3 17.5 12.2 17.3C12.1 17.4 12 17.6 11.9 17.7C11.3 18.4 10.5 18.8 9.60001 18.8C9.00001 18.8 8.6 18.4 8.5 17.8C8.5 17.2 8.9 16.8 9.5 16.8C9.8 16.8 10.1 16.7 10.3 16.4C10.6 16 10.9 15.6 11.2 15.3C11.2 15.2 11.3 15.1 11.2 15.1C11.1 14.7 10.9 14.4 10.8 14.1C10.8 14 10.7 14 10.6 14C10.4 14 10.3 14 10.1 14C9.70001 13.9 9.39999 13.5 9.39999 13C9.39999 12.5 9.7 12.1 10.2 12.1C11.3 11.9 12.2 12.4 12.6 13.4C12.6 13.3 12.6 13.4 12.7 13.5Z" fill="#3939FF"/>
<path d="M20.3 14.8C20.3 17.1 19.9 19.2 19 21.3C18.8 21.8 18.4 22 17.9 21.9C17.4 21.8 17.1 21.5 17.1 21C17.1 20.8 17.1 20.6 17.2 20.4C17.7 19.2 18.1 18 18.2 16.7C18.5 14.2 18.2 11.8 17.2 9.5C17.1 9.2 17 9.00001 17.1 8.70001C17.2 8.30001 17.6 8 18 8C18.4 8 18.8 8.20001 19 8.60001C19.4 9.50001 19.7 10.4 19.9 11.4C20.2 12.6 20.3 13.8 20.3 14.8Z" fill="#3939FF"/>
<path d="M6.60007 8C7.40007 8 7.90007 8.69999 7.60007 9.29999C7.40007 9.79999 7.20007 10.3 7.00007 10.9C6.00007 14.1 6.20007 17.3 7.50007 20.4C7.70007 20.9 7.60006 21.4 7.20006 21.7C6.70006 22.1 5.90006 21.9 5.70006 21.3C5.20006 20.2 4.80007 19 4.60007 17.7C4.10007 14.8 4.40006 12 5.40006 9.29999C5.50006 9.09999 5.60006 8.80001 5.70006 8.60001C5.90006 8.20001 6.20007 8 6.60007 8Z" fill="#3939FF"/>
</svg>
