<svg width="102" height="41" viewBox="0 0 102 41" fill="none" xmlns="http://www.w3.org/2000/svg">
<path d="M22.6 0H95.1C97.4 2.3 98.8 3.7 101.1 6V34.1C98.8 36.4 97.4 37.8 95.1 40.1H3C1.8 38.9 1.2 38.3 0 37.1V22.6C8.9 13.8 13.8 8.8 22.6 0Z" fill="white"/>
<path d="M94.7 1L97.4 3.7L100.1 6.4V33.7L97.4 36.4L94.7 39.1H3.4L1 36.7V23L12 12L23 1H94.7ZM95.2 0H22.6C13.8 8.8 8.8 13.8 0 22.6V37.1C1.2 38.3 1.8 38.9 3 40.1H95.1C97.4 37.8 98.8 36.4 101.1 34.1V6C98.8 3.7 97.5 2.3 95.2 0Z" fill="black"/>
<path d="M43.9 1H45.7L45 1.7H43.2L43.9 1Z" fill="black"/>
<path d="M46 1H47.8L47.1 1.7H45.3L46 1Z" fill="black"/>
<path d="M48.1 1H49.9L49.2 1.7H47.4L48.1 1Z" fill="black"/>
<path d="M50.2 1H52L51.2 1.7H49.5L50.2 1Z" fill="black"/>
<path d="M100.2 7.1V8.9L99.4 8.2V6.4L100.2 7.1Z" fill="black"/>
<path d="M100.2 9.2V11L99.4 10.3V8.5L100.2 9.2Z" fill="black"/>
<path d="M90.9 1.7H92.6L91.9 1H90.2L90.9 1.7Z" fill="black"/>
<path d="M93 1.7H94.7L94 1H92.3L93 1.7Z" fill="black"/>
<path d="M1 36V34.2L1.7 34.9V36.7L1 36Z" fill="black"/>
<path d="M1 33.9V32.1L1.7 32.8V34.6L1 33.9Z" fill="black"/>
<path d="M7.3 38.4H5.5L6.2 39.1H8L7.3 38.4Z" fill="black"/>
<path d="M5.20003 38.4H3.40002L4.20003 39.1H5.90002L5.20003 38.4Z" fill="black"/>
</svg>
