<svg width="102" height="41" viewBox="0 0 102 41" fill="none" xmlns="http://www.w3.org/2000/svg">
<path d="M78.5 0H6C3.7 2.3 2.3 3.7 0 6V34.1C2.3 36.4 3.7 37.8 6 40.1H98.1C99.3 38.9 99.9 38.3 101.1 37.1V22.6C92.3 13.8 87.3 8.8 78.5 0Z" fill="white"/>
<path d="M6.4 1H78.1L89.1 12L100.1 23V36.6L97.7 39H6.4L3.7 36.3L1 33.6V6.4L3.7 3.7L6.4 1ZM6 0C3.7 2.3 2.3 3.7 0 6V34.1C2.3 36.4 3.7 37.8 6 40.1H98.1C99.3 38.9 99.9 38.3 101.1 37.1V22.6C92.3 13.8 87.3 8.8 78.5 0H6Z" fill="black"/>
<path d="M57.2 1H55.4L56.1 1.7H57.9L57.2 1Z" fill="black"/>
<path d="M55.0999 1H53.2999L53.9999 1.7H55.7999L55.0999 1Z" fill="black"/>
<path d="M53 1H51.2L52 1.7H53.7L53 1Z" fill="black"/>
<path d="M50.9 1H49.1L49.9 1.7H51.6L50.9 1Z" fill="black"/>
<path d="M1 7.1V8.9L1.7 8.2V6.4L1 7.1Z" fill="black"/>
<path d="M1 9.2V11L1.7 10.3V8.5L1 9.2Z" fill="black"/>
<path d="M10.2 1.7H8.5L9.2 1H10.9L10.2 1.7Z" fill="black"/>
<path d="M8.10002 1.7H6.40002L7.10002 1H8.90002L8.10002 1.7Z" fill="black"/>
<path d="M100.1 36V34.2L99.4 34.9V36.7L100.1 36Z" fill="black"/>
<path d="M100.1 33.9V32.1L99.4 32.8V34.6L100.1 33.9Z" fill="black"/>
<path d="M93.8 38.4H95.6L94.9 39.1H93.1L93.8 38.4Z" fill="black"/>
<path d="M95.8999 38.4H97.7L97 39.1H95.2L95.8999 38.4Z" fill="black"/>
</svg>
