<svg width="122" height="41" viewBox="0 0 122 41" fill="none" xmlns="http://www.w3.org/2000/svg">
<path d="M22.7 40.1H116C118.3 37.8 119.7 36.4 122 34.1V6C119.7 3.7 118.3 2.3 116 0H3.09998C1.89998 1.2 1.29998 1.8 0.0999756 3V17.5C8.89998 26.3 13.8 31.2 22.7 40.1Z" fill="#DDDDDD"/>
<path d="M115.5 39.1H23.1L12.1 28.1L1.09998 17.1V3.4L3.5 1H115.6L118.3 3.7L121 6.4V33.7L118.3 36.4L115.5 39.1ZM115.9 40.1C118.2 37.8 119.6 36.4 121.9 34.1V6C119.6 3.7 118.2 2.3 115.9 0H3C1.8 1.2 1.2 1.8 0 3V17.5C8.8 26.3 13.8 31.3 22.6 40.1H115.9Z" fill="black"/>
<path d="M49.6 39H55.1L52.7999 36.7H47.4L49.6 39Z" fill="black"/>
<path d="M56.1 39H61.6L59.2999 36.7H53.9L56.1 39Z" fill="black"/>
<path d="M62.6 39H68.1L65.7999 36.7H60.4L62.6 39Z" fill="black"/>
<path d="M69.1 39H74.6L72.2999 36.7H66.9L69.1 39Z" fill="black"/>
<path d="M1 6.8V10L2.40002 8.7V5.4L1 6.8Z" fill="black"/>
<path d="M1 10.6V13.9L2.40002 12.5V9.3L1 10.6Z" fill="black"/>
<path d="M12.6 2.3H9.29993L10.7 1H13.9L12.6 2.3Z" fill="black"/>
<path d="M8.69995 2.3H5.5L6.79993 1H10.1L8.69995 2.3Z" fill="black"/>
<path d="M120.9 32.3V29.1L119.6 30.4V33.7L120.9 32.3Z" fill="black"/>
<path d="M120.9 28.5V25.2L119.6 26.6V29.8L120.9 28.5Z" fill="black"/>
<path d="M108.4 37.7H111.7L110.3 39.1H107.1L108.4 37.7Z" fill="black"/>
<path d="M112.3 37.7H115.5L114.2 39.1H110.9L112.3 37.7Z" fill="black"/>
</svg>
