<svg width="123" height="41" viewBox="0 0 123 41" fill="none" xmlns="http://www.w3.org/2000/svg">
<path d="M99.4001 40.1H6.1001C3.8001 37.8 2.4001 36.4 0.100098 34.1V6C2.4001 3.7 3.8001 2.3 6.1001 0H119.1C120.3 1.2 120.9 1.8 122.1 3V17.5C113.2 26.3 108.2 31.2 99.4001 40.1Z" fill="#DDDDDD"/>
<path d="M6.5 39.1L3.80005 36.4L1.09998 33.7V6.4L3.80005 3.7L6.5 1H118.6L121 3.4V17L110 28L99 39H6.5M6.09998 40.1H99.4C108.2 31.3 113.2 26.3 122 17.5V3C120.8 1.8 120.2 1.2 119 0H6C3.7 2.3 2.3 3.7 0 6V34.1C2.4 36.4 3.69998 37.7 6.09998 40.1Z" fill="black"/>
<path d="M72.4001 39H66.9001L69.2002 36.7H74.7002L72.4001 39Z" fill="black"/>
<path d="M65.9001 39H60.4001L62.7002 36.7H68.2002L65.9001 39Z" fill="black"/>
<path d="M59.4001 39H53.9001L56.2002 36.7H61.7002L59.4001 39Z" fill="black"/>
<path d="M52.9001 39H47.4001L49.7002 36.7H55.2002L52.9001 39Z" fill="black"/>
<path d="M121 6.8V10L119.7 8.7V5.4L121 6.8Z" fill="black"/>
<path d="M121 10.6V13.9L119.7 12.5V9.3L121 10.6Z" fill="black"/>
<path d="M109.5 2.3H112.7L111.4 1H108.1L109.5 2.3Z" fill="black"/>
<path d="M113.3 2.3H116.6L115.2 1H112L113.3 2.3Z" fill="black"/>
<path d="M1.1001 32.3V29.1L2.40015 30.4V33.7L1.1001 32.3Z" fill="black"/>
<path d="M1.1001 28.5V25.2L2.40015 26.6V29.8L1.1001 28.5Z" fill="black"/>
<path d="M13.5999 37.7H10.3999L11.7 39.1H14.9999L13.5999 37.7Z" fill="black"/>
<path d="M9.80005 37.7H6.5L7.90002 39.1H11.1L9.80005 37.7Z" fill="black"/>
</svg>
