<svg width="207" height="34" viewBox="0 0 207 34" fill="none" xmlns="http://www.w3.org/2000/svg">
<path d="M3.49999 32.8C3.29999 32.8 3.09999 32.6 3.09999 32.4V28.6C3.09999 28.4 2.99999 28.1 2.79999 27.9L0.399988 25.5C0.299988 25.4 0.299988 25.3 0.299988 25.2V7.89999C0.299988 7.79999 0.299988 7.69999 0.399988 7.59999L2.79999 5.2C2.99999 5 3.09999 4.8 3.09999 4.5V0.699997C3.09999 0.499997 3.29999 0.299988 3.49999 0.299988H202.8C203 0.299988 203.2 0.499997 203.2 0.699997V4.5C203.2 4.7 203.3 5 203.5 5.2L205.9 7.59999C206 7.69999 206 7.79999 206 7.89999V25.2C206 25.3 206 25.4 205.9 25.5L203.5 27.9C203.3 28.1 203.2 28.3 203.2 28.6V32.4C203.2 32.6 203 32.8 202.8 32.8H3.49999Z" fill="#3D3D3D"/>
<path d="M202.8 0.5C202.9 0.5 203 0.599997 203 0.699997V4.5C203 4.8 203.1 5.09999 203.3 5.29999L205.7 7.7L205.8 7.79999V25.1C205.8 25.1 205.8 25.2 205.7 25.2L204.5 26.4L203.3 27.6C203.1 27.8 203 28.1 203 28.4V32.2C203 32.3 202.9 32.4 202.8 32.4H3.5C3.4 32.4 3.3 32.3 3.3 32.2V28.4C3.3 28.1 3.2 27.8 3 27.6L0.6 25.2L0.5 25.1V7.89999C0.5 7.89999 0.5 7.79999 0.6 7.79999L1.8 6.59999L3 5.39999C3.2 5.19999 3.3 4.89999 3.3 4.59999V0.799988C3.3 0.699988 3.4 0.599991 3.5 0.599991H202.8M202.8 0H3.5C3.1 0 2.8 0.299997 2.8 0.699997V4.5C2.8 4.7 2.7 4.9 2.6 5C1.7 5.9 1.1 6.49999 0.200001 7.39999C0.100001 7.49999 0 7.69999 0 7.89999V25.2C0 25.4 0.100001 25.6 0.200001 25.7L2.6 28.1C2.7 28.2 2.8 28.4 2.8 28.6V32.4C2.8 32.8 3.1 33.1 3.5 33.1H202.8C203.2 33.1 203.5 32.8 203.5 32.4V28.6C203.5 28.4 203.6 28.2 203.7 28.1C204.6 27.2 205.2 26.6 206.1 25.7C206.2 25.6 206.3 25.4 206.3 25.2V7.89999C206.3 7.69999 206.2 7.49999 206.1 7.39999L203.7 5C203.6 4.9 203.5 4.7 203.5 4.5V0.699997C203.5 0.299997 203.2 0 202.8 0Z" fill="#2FC1E8"/>
<path d="M198.6 9.09999V24C198.6 24.2 198.7 24.4 198.8 24.5C199.6 25.3 200.7 26.3 201.2 26.7C201.3 26.8 201.4 27 201.4 27.2V30.3C201.4 30.7 201.1 31 200.7 31H5.59996C5.19996 31 4.89996 30.7 4.89996 30.3V27.2C4.89996 27 4.99996 26.8 5.09996 26.7L7.49996 24.5C7.59996 24.4 7.69996 24.2 7.69996 24V9.09999C7.69996 8.89999 7.59996 8.69999 7.49996 8.59999L5.09996 6.39999C4.99996 6.29999 4.89996 6.09999 4.89996 5.89999V2.79999C4.89996 2.39999 5.19996 2.09999 5.59996 2.09999H200.7C201.1 2.09999 201.4 2.39999 201.4 2.79999V5.89999C201.4 6.09999 201.3 6.29999 201.2 6.39999C200.7 6.79999 199.6 7.79999 198.8 8.59999C198.7 8.79999 198.6 8.89999 198.6 9.09999Z" fill="#545454" stroke="#1D1D1D" stroke-width="0.25" stroke-miterlimit="10"/>
</svg>
